<?xml version="1.0" encoding="UTF-8"?>
<svg id="Layer_1" xmlns="http://www.w3.org/2000/svg" version="1.1" viewBox="0 0 367.16 466.44">
  <!-- Generator: Adobe Illustrator 29.8.1, SVG Export Plug-In . SVG Version: 2.1.1 Build 2)  -->
  <defs>
    <style>
      .st0 {
        fill: #fde27c;
      }

      .st1 {
        fill: #333330;
      }
    </style>
  </defs>
  <path class="st1" d="M54.28,101.56c-1.12,0-2.22-.51-2.93-1.48-3.41-4.6-5.65-10.41-6.48-16.78-.38-2.89-.45-5.86-.23-8.83,1.25-16.75,11.91-30.28,24.79-31.46,2.01-.18,3.78,1.29,3.97,3.3.18,2.01-1.29,3.78-3.3,3.97-9.38.86-17.2,11.49-18.18,24.74-.18,2.48-.12,4.95.19,7.35.67,5.15,2.44,9.77,5.11,13.38,1.2,1.62.86,3.9-.76,5.1-.65.48-1.41.72-2.17.72Z"/>
  <path class="st1" d="M34.01,112.42c-1.17,0-2.31-.58-2.99-1.64-4.25-6.69-7.18-14.56-8.49-22.76-.79-4.98-1-10.11-.62-15.24,1.74-23.42,15.92-43.75,35.27-50.59,1.84-.65,3.86.31,4.51,2.15.65,1.84-.31,3.86-2.15,4.51-16.75,5.92-29.04,23.79-30.58,44.45-.34,4.59-.16,9.16.55,13.61,1.16,7.26,3.74,14.2,7.48,20.08,1.05,1.65.56,3.83-1.09,4.88-.59.37-1.24.55-1.89.55Z"/>
  <path class="st1" d="M13.84,123.45c-1.3,0-2.55-.69-3.21-1.91-4.67-8.63-7.85-18.11-9.46-28.18-1.16-7.26-1.46-14.72-.9-22.19C2.62,39.6,19.74,12.47,44.94.36c1.82-.87,3.99-.11,4.87,1.71.87,1.82.11,4-1.71,4.87C25.59,17.75,9.67,43.17,7.55,71.71c-.51,6.91-.23,13.8.83,20.5,1.47,9.25,4.39,17.95,8.67,25.85.96,1.77.3,3.99-1.47,4.94-.55.3-1.15.44-1.73.44Z"/>
  <path class="st0" d="M203.16,73c-3.58,1.62-7.55,2.53-11.73,2.53-15.73,0-28.47-12.75-28.47-28.47,0-2.64.37-5.2,1.04-7.63-1.27.17-2.57.27-3.89.27-3.67,0-7.17-.7-10.38-1.96-41.3.48-74.94,34.4-74.94,75.81v18.64h33.66c3.84,0,6.98,3.14,6.98,6.98v.6c0,3.84-3.14,6.98-6.98,6.98h-33.66v22.89h33.66c3.84,0,6.98,3.14,6.98,6.98v.6c0,3.84-3.14,6.98-6.98,6.98h-33.66v21.19h33.66c3.84,0,6.98,3.14,6.98,6.98v.6c0,3.84-3.14,6.98-6.98,6.98h-33.66v32c0,41.71,34.12,75.83,75.83,75.83h0c41.71,0,75.83-34.12,75.83-75.83v-32h-33.66c-3.84,0-6.98-3.14-6.98-6.98v-.6c0-3.84,3.14-6.98,6.98-6.98h33.66v-21.19h-33.66c-3.84,0-6.98-3.14-6.98-6.98v-.6c0-3.84,3.14-6.98,6.98-6.98h33.66v-22.89h-33.66c-3.84,0-6.98-3.14-6.98-6.98v-.6c0-3.84,3.14-6.98,6.98-6.98h33.66v-18.64c0-3.84-.29-7.61-.85-11.29-12.62-3.93-21.88-15.47-22.44-29.25Z"/>
  <path class="st0" d="M256.57,194.97c-5.56,0-10.06,4.5-10.06,10.06v47.49c0,53.11-43.21,96.32-96.32,96.32s-96.32-43.21-96.32-96.32v-47.49c0-5.56-4.5-10.06-10.06-10.06s-10.06,4.5-10.06,10.06v47.49c0,60.98,47.12,111.16,106.87,116.05v77.87h-61.23c-5.52,0-10,4.48-10,10s4.48,10,10,10h142.47c5.52,0,10-4.48,10-10s-4.48-10-10-10h-61.23v-77.94c59.34-5.29,106.02-55.28,106.02-115.97v-47.49c0-5.56-4.5-10.06-10.06-10.06Z"/>
  <g>
    <path class="st0" d="M287.87,49.18c6.25-.29,9.88,6.81,6.35,11.87-1.66,2.38-6.19,4.98-8.32,1.97-1.47-2.09.22-2.33.28-2.98.01-.14-.99-2.14-1.14-2.63-.95-3.08-1.68-8.02,2.83-8.23Z"/>
    <path class="st0" d="M309.95,75.09c1.05-.26,1.69.67,2.34,1.39,1.41,1.55,3.87,5.39,2.28,7.33-1.04,1.26-3.8-.02-4.97-.8-1.6-1.06-2.34-3.02-1.94-4.91.16-.78,1.49-2.8,2.29-3Z"/>
  </g>
  <g>
    <path class="st0" d="M288.17,139.6c1.6-.09,3.41-1.11,4.96-1.18,4.58-.23,6.97,8.48.5,7.36-3.07-.53-4.46-3.59-5.46-6.18Z"/>
    <g>
      <path class="st0" d="M326.02,119.73c3.43-.58,8.54,1.67,9.12,5.4,1.09,6.92-5.01,8.33-9.76,4.72-1.11-.84-4.88-5.1-4.55-6.41.2-.79,4.23-3.55,5.19-3.71Z"/>
      <path class="st0" d="M361.96,115.18c2.72,1.13,5.74,2.77,5.11,6.24-.9,4.89-10.16,1.44-8.6-2.12.18-.42,3.23-4.1,3.5-4.12Z"/>
    </g>
  </g>
  <g>
    <path class="st0" d="M254.28,68.63c5.22-.46,6.34,4.07,2.82,7.38-2.33,2.19-8.42,2.58-11.15,1.05-.71-.4-2.93-2.5-2.78-3.24.2-1.04,2.16-4.28,3.26-4.65,1.8-.61,5.8.12,7.86-.54Z"/>
    <path class="st0" d="M249.82,21.81c.34-.31,4.69-.64,5.33-.52.96.18,2.75,2.07,2.96,3.04,1.13,5.45-8.21,5.62-8.77-.12-.05-.5.17-2.11.49-2.39Z"/>
  </g>
</svg>